<svg width="24" height="24" viewBox="0 0 24 24" fill="none" xmlns="http://www.w3.org/2000/svg">
<path d="M3.08594 17.509C3.17171 17.1193 3.13897 16.7129 2.99194 16.342C1.9687 14.219 1.72819 11.8027 2.31283 9.51964C2.89747 7.23654 4.26968 5.23329 6.18738 3.86334C8.10507 2.49338 10.445 1.84475 12.7943 2.0319C15.1436 2.21904 17.3514 3.22992 19.028 4.88619C20.7046 6.54247 21.7424 8.73769 21.9582 11.0845C22.1741 13.4314 21.5541 15.7791 20.2076 17.7134C18.8612 19.6477 16.8749 21.0442 14.5991 21.6567C12.3233 22.2692 9.90432 22.0582 7.76894 21.061C7.41846 20.9279 7.03765 20.8961 6.66994 20.969L3.25694 21.967C3.0923 22.0107 2.91923 22.0116 2.75413 21.9697C2.58904 21.9277 2.43741 21.8443 2.3136 21.7273C2.1898 21.6103 2.09793 21.4636 2.04671 21.3011C1.99549 21.1387 1.98662 20.9658 2.02094 20.799L3.08594 17.509Z" stroke="black" stroke-width="2" stroke-linecap="round" stroke-linejoin="round"/>
</svg>
