<svg width="24" height="24" viewBox="0 0 24 24" fill="none" xmlns="http://www.w3.org/2000/svg">
<path d="M12 7.00001V21M12 7.00001C11.6383 5.50941 11.0154 4.23507 10.2127 3.34317C9.41003 2.45127 8.46469 1.9832 7.5 2.00001C6.83696 2.00001 6.20107 2.2634 5.73223 2.73224C5.26339 3.20108 5 3.83697 5 4.50001C5 5.16305 5.26339 5.79894 5.73223 6.26778C6.20107 6.73662 6.83696 7.00001 7.5 7.00001M12 7.00001C12.3617 5.50941 12.9846 4.23507 13.7873 3.34317C14.59 2.45127 15.5353 1.9832 16.5 2.00001C17.163 2.00001 17.7989 2.2634 18.2678 2.73224C18.7366 3.20108 19 3.83697 19 4.50001C19 5.16305 18.7366 5.79894 18.2678 6.26778C17.7989 6.73662 17.163 7.00001 16.5 7.00001M20 11V19C20 19.5304 19.7893 20.0392 19.4142 20.4142C19.0391 20.7893 18.5304 21 18 21H6C5.46957 21 4.96086 20.7893 4.58579 20.4142C4.21071 20.0392 4 19.5304 4 19V11M20 11C20.5523 11 21 10.5523 21 10V8.00001C21 7.44773 20.5523 7.00001 20 7.00001H4C3.44772 7.00001 3 7.44773 3 8.00001V10C3 10.5523 3.44772 11 4 11M20 11H4" stroke="black" stroke-width="2" stroke-linecap="round" stroke-linejoin="round"/>
</svg>
