<svg xmlns="http://www.w3.org/2000/svg" xmlns:xlink="http://www.w3.org/1999/xlink" width="1024" zoomAndPan="magnify" viewBox="0 0 768 767.999994" height="1024" preserveAspectRatio="xMidYMid meet" version="1.0"><defs><clipPath id="90ba967f8c"><path d="M 196.527344 195.585938 L 571.527344 195.585938 L 571.527344 572.085938 L 196.527344 572.085938 Z M 196.527344 195.585938 " clip-rule="nonzero"/></clipPath></defs><g clip-path="url(#90ba967f8c)"><path fill="#ffffff" d="M 516.800781 250.425781 C 481.5625 215.148438 434.699219 195.683594 384.761719 195.683594 C 281.871094 195.683594 198.128906 279.410156 198.09375 382.335938 C 198.09375 415.230469 206.679688 447.359375 223.015625 475.652344 L 196.527344 572.378906 L 295.488281 546.414062 C 322.757812 561.296875 353.453125 569.117188 384.6875 569.136719 L 384.761719 569.136719 C 487.632812 569.136719 571.394531 485.394531 571.414062 382.484375 C 571.414062 332.605469 552.042969 285.722656 516.785156 250.425781 Z M 384.761719 537.621094 L 384.707031 537.621094 C 356.878906 537.621094 329.554688 530.132812 305.734375 515.996094 L 300.070312 512.625 L 241.34375 528.027344 L 257.007812 470.773438 L 253.320312 464.90625 C 237.785156 440.207031 229.589844 411.652344 229.609375 382.335938 C 229.644531 296.804688 299.25 227.199219 384.820312 227.199219 C 426.261719 227.199219 465.207031 243.367188 494.507812 272.703125 C 523.804688 302.019531 539.917969 341.003906 539.898438 382.46875 C 539.859375 468.015625 470.257812 537.621094 384.742188 537.621094 Z M 469.863281 421.433594 C 465.207031 419.105469 442.28125 407.816406 437.996094 406.269531 C 433.710938 404.707031 430.621094 403.941406 427.507812 408.597656 C 424.398438 413.273438 415.457031 423.78125 412.738281 426.890625 C 410.019531 430 407.300781 430.390625 402.625 428.042969 C 397.96875 425.714844 382.9375 420.78125 365.113281 404.894531 C 351.253906 392.523438 341.886719 377.25 339.167969 372.578125 C 336.445312 367.902344 338.886719 365.386719 341.214844 363.058594 C 343.300781 360.972656 345.871094 357.601562 348.21875 354.882812 C 350.546875 352.164062 351.328125 350.207031 352.875 347.097656 C 354.4375 343.984375 353.65625 341.265625 352.484375 338.917969 C 351.308594 336.589844 341.996094 313.625 338.105469 304.292969 C 334.324219 295.203125 330.46875 296.433594 327.617188 296.285156 C 324.898438 296.152344 321.789062 296.117188 318.675781 296.117188 C 315.566406 296.117188 310.519531 297.273438 306.234375 301.945312 C 301.953125 306.621094 289.917969 317.910156 289.917969 340.855469 C 289.917969 363.804688 306.625 385.988281 308.972656 389.117188 C 311.300781 392.226562 341.867188 439.332031 388.65625 459.542969 C 399.773438 464.347656 408.472656 467.214844 415.253906 469.375 C 426.429688 472.933594 436.597656 472.429688 444.625 471.21875 C 453.585938 469.878906 472.210938 459.933594 476.105469 449.035156 C 479.996094 438.140625 479.996094 428.808594 478.824219 426.851562 C 477.652344 424.898438 474.539062 423.742188 469.882812 421.394531 Z M 469.863281 421.433594 " fill-opacity="1" fill-rule="evenodd"/></g></svg>