<svg width="12" height="12" viewBox="0 0 12 12" fill="none" xmlns="http://www.w3.org/2000/svg">
<path d="M10.5 4V8C10.5 8.66304 10.2366 9.29893 9.76777 9.76777C9.29893 10.2366 8.66304 10.5 8 10.5H4C3.33696 10.5 2.70107 10.2366 2.23223 9.76777C1.76339 9.29893 1.5 8.66304 1.5 8V4C1.5 3.33696 1.76339 2.70107 2.23223 2.23223C2.70107 1.76339 3.33696 1.5 4 1.5H8C8.66304 1.5 9.29893 1.76339 9.76777 2.23223C10.2366 2.70107 10.5 3.33696 10.5 4Z" stroke="black" stroke-width="0.75" stroke-linecap="round" stroke-linejoin="round"/>
<path d="M5.5 10.5V6C5.5 4.9065 5.75 4 7.5 4M4.5 6.5H7.5" stroke="black" stroke-width="0.75" stroke-linecap="round" stroke-linejoin="round"/>
</svg>
